<svg height="24" viewBox="0 0 24 24" width="24" fill="#fa5b35" xmlns="http://www.w3.org/2000/svg"
	 class="Icon Icon--IconChat Icon Icon--IconChat" focusable="false">
	<circle cx="7.8" cy="11.5" r="1.2"></circle>
	<circle cx="12" cy="11.5" r="1.2"></circle>
	<circle cx="16.2" cy="11.5" r="1.2"></circle>
	<path d="M19 6c.6 0 1 .4 1 1v9c0 .6-.4 1-1 1H6.7l-.5.4L4 19V7c0-.6.4-1 1-1h14m0-2H5C3.3 4 2 5.3 2 7v14c0 .4.2.7.6.9.1.1.2.1.4.1s.4-.1.6-.2L7.3 19H19c1.7 0 3-1.3 3-3V7c0-1.7-1.3-3-3-3z"></path>
	<path fill="none" d="M0 0h24v24H0z"></path>
</svg>